# xmcd
#
# Track frame offsets: 
#        150
#        14287
#        24800
#        38744
#        54475
#        65474
#        78474
#        87056
#        100630
#        105581
#        121194
#        146333
#        159992
#        180585
#        191098
#        207726
#        219353
#        241672
#        254914
#
# Disc length: 3656 seconds
#
# Revision: 4
# Processed by: cddbd v1.5.2PL0 Copyright (c) Steve Scherf et al.
# Submitted via: ExactAudioCopy v1.3
#
DISCID=f40e4613
DTITLE=Jerry Douglas - Everything Is Gonna Work Out Fine
DYEAR=1987
DGENRE=Bluegrass
TTITLE0=Fluxology
TTITLE1=Randy Lynn Rag
TTITLE2=Bill Cheatham
TTITLE3=C-Biscuit
TTITLE4=Wheel Hoss
TTITLE5=Alabam'
TTITLE6=Dixie Hoedown
TTITLE7=Red Bug Rag
TTITLE8=Blues For Vickie
TTITLE9=Nite Crawler
TTITLE10=Tennessee Fluxedo
TTITLE11=Sunny Skies
TTITLE12=Intro
TTITLE13=Tell Her Lies (And Feed Her Candy)
TTITLE14=Birth Of The Blues
TTITLE15=Cincinnati Rag
TTITLE16=Panhandle Rag
TTITLE17=Ben Dewberry's Final Run
TTITLE18=I think it's gonna work out fine
EXTD=
EXTT0=
EXTT1=
EXTT2=
EXTT3=
EXTT4=
EXTT5=
EXTT6=
EXTT7=
EXTT8=
EXTT9=
EXTT10=
EXTT11=
EXTT12=
EXTT13=
EXTT14=
EXTT15=
EXTT16=
EXTT17=
EXTT18=
PLAYORDER=
